{"title":"The Pirate Fairy 2014 True.1080p.BluRay.5.1 x264 . NVEE","uid":10031402,"size":1663949550,"categoryP":"video","categoryS":"hd___movies","magnet":"?xt=urn:btih:e2166a03ebffa0924f709720724d52d0d2418e81&amp;dn=The+Pirate+Fairy+2014+True.1080p.BluRay.5.1+x264+.+NVEE&amp;tr=udp%3A%2F%2Ftracker.openbittorrent.com%3A80&amp;tr=udp%3A%2F%2Fopen.demonii.com%3A1337&amp;tr=udp%3A%2F%2Ftracker.coppersurfer.tk%3A6969&amp;tr=udp%3A%2F%2Fexodus.desync.com%3A6969","seeders":1,"leechers":0,"uploader":".NVEE","files":-1,"time":1398346848,"description":"A  stark47811 ,... Easter Special Request.\n\n\nQuick note :\nIf you require a torrent release I have posted in the past, not seeding,...\nPlease do not hesitate to inform me in any means you find fit to do so.\nTorrent requests also &quot;Always Welcome.&quot;\n\n\nFULL_INFOs\n\n99.99% --- SYNCED GUARANTEED \n\n&quot;Totally scrutinized / analyzed to be a verified torrent.&quot;\n___________________________________________\n\nSource : Blu-ray ~ 1080p\n\n\n\nSpoken Language : English\n\nAudio : 6 ~ Channels Only\n\n\nSubs Info :\n\nText #1\nID : 3\nFormat : Timed Text\nCodec ID : tx3g\nDuration : 1h 14mn\nBit rate mode : Variable\nBit rate : 86 bps\nStream size : 46.9 KiB (0%)\nLanguage : English_Hearing_Impaired\nEncoded date : UTC 2014-04-21 08:17:19\nTagged date : UTC 2014-04-21 08:17:20\n\nText #2\nID : 4\nFormat : Timed Text\nCodec ID : tx3g\nDuration : 1h 9mn\nBit rate mode : Variable\nBit rate : 61 bps\nStream size : 31.0 KiB (0%)\nLanguage : English\nEncoded date : UTC 2014-04-21 08:17:19\nTagged date : UTC 2014-04-21 08:17:20\n\nText #3\nID : 5\nFormat : Timed Text\nCodec ID : tx3g\nDuration : 1h 9mn\nBit rate mode : Variable\nBit rate : 56 bps\nStream size : 28.7 KiB (0%)\nLanguage : French\nEncoded date : UTC 2014-04-21 08:17:19\nTagged date : UTC 2014-04-21 08:17:20\n\nText #4\nID : 6\nFormat : Timed Text\nCodec ID : tx3g\nDuration : 1h 9mn\nBit rate mode : Variable\nBit rate : 60 bps\nStream size : 30.8 KiB (0%)\nLanguage : Spanish\nEncoded date : UTC 2014-04-21 08:17:20\nTagged date : UTC 2014-04-21 08:17:20\n\nAll .srt &amp; .idx subs can be turned On/Off\n_____________________________________\n---------------------------------------------------------------------------------\n\nGeneral Metadata\n\nComplete name : Tinker Bell and the.Pirate.Fairy.2014.True.1080p.BluRay.5.1.x264 . NVEE.mp4\nFormat : MPEG-4\nFormat profile : Base Media\nCodec ID : isom\nFile size : 1.55 GiB\nDuration : 1h 18mn\nOverall bit rate mode : Variable\nOverall bit rate : 2 841 Kbps\nEncoded date : UTC 2014-04-21 08:10:48\nTagged date : UTC 2014-04-21 08:10:48\n\n\nVideo\n\nID : 1\nFormat : AVC\nFormat/Info : Advanced Video Codec\nFormat profile : &lt;a class=&quot;__cf_email__&quot; href=&quot;/cdn-cgi/l/email-protection&quot; data-cfemail=&quot;1e567779765e522a302e&quot;&gt;[email&amp;#160;protected]&lt;/a&gt;&lt;script cf-hash='f9e31' type=&quot;text/javascript&quot;&gt;\n/* &lt;![CDATA[ */!function(){try{var t=&quot;currentScript&quot;in document?document.currentScript:function(){for(var t=document.getElementsByTagName(&quot;script&quot;),e=t.length;e--;)if(t[e].getAttribute(&quot;cf-hash&quot;))return t[e]}();if(t&amp;&amp;t.previousSibling){var e,r,n,i,c=t.previousSibling,a=c.getAttribute(&quot;data-cfemail&quot;);if(a){for(e=&quot;&quot;,r=parseInt(a.substr(0,2),16),n=2;a.length-n;n+=2)i=parseInt(a.substr(n,2),16)^r,e+=String.fromCharCode(i);e=document.createTextNode(e),c.parentNode.replaceChild(e,c)}}}catch(u){}}();/* ]]&gt; */&lt;/script&gt;\nFormat settings, CABAC : Yes\nFormat settings, ReFrames : 3 frames\nCodec ID : avc1\nCodec ID/Info : Advanced Video Coding\nDuration : 1h 18mn\nBit rate : 2 199 Kbps\nMaximum bit rate : 36.4 Mbps\nWidth : 1 920 pixels\nHeight : 1 080 pixels\nDisplay aspect ratio : 16:9\nFrame rate mode : Constant\nFrame rate : 23.976 fps\nColor space : YUV\nChroma subsampling : 4:2:0\nBit depth : 8 bits\nScan type : Progressive\nBits/(Pixel*Frame) : 0.044\nStream size : 1.20 GiB (77%)\nWriting library : x264 core 138 r2358 9e941d1\nEncoded from Physical Blu-ray\n\n\nAudio\n\nID : 2\nFormat : AC-3\nFormat/Info : Audio Coding 3\nMode extension : CM (complete main)\nFormat settings, Endianness : Big\nCodec ID : ac-3\nDuration : 1h 18mn\nBit rate mode : Constant\nBit rate : 640 Kbps\nChannel(s) : 6 channels\nChannel positions : Front: L C R, Side: L R, LFE\nSampling rate : 48.0 KHz\nBit depth : 16 bits\nCompression mode : Lossy\nStream size : 357 MiB (23%)\nLanguage : English\nEncoded date : UTC 2014-04-21 08:15:31\nTagged date : UTC 2014-04-21 08:17:20\nEncoded from Physical Blu-ray 6 Channel audio &quot;Always&quot;.\n\n\nEnj0y !\n","torrent":{"xt":"urn:btih:e2166a03ebffa0924f709720724d52d0d2418e81","amp;dn":"The+Pirate+Fairy+2014+True.1080p.BluRay.5.1+x264+.+NVEE","amp;tr":["udp%3A%2F%2Ftracker.openbittorrent.com%3A80","udp%3A%2F%2Fopen.demonii.com%3A1337","udp%3A%2F%2Ftracker.coppersurfer.tk%3A6969","udp%3A%2F%2Fexodus.desync.com%3A6969"],"infoHash":"e2166a03ebffa0924f709720724d52d0d2418e81","infoHashBuffer":{"type":"Buffer","data":[226,22,106,3,235,255,160,146,79,112,151,32,114,77,82,208,210,65,142,129]},"announce":[],"urlList":[]}}